<svg width="70" height="40" viewBox="0 0 70 40" fill="none" xmlns="http://www.w3.org/2000/svg">
<path d="M0 4C0 1.79086 1.79086 0 4 0H66C68.2091 0 70 1.79086 70 4V36C70 38.2091 68.2091 40 66 40H4C1.79086 40 0 38.2091 0 36V4Z" fill="white"/>
<path d="M46.4966 21.8471L53.042 15.2554C53.2016 15.0909 53.415 15.0004 53.6425 15.0004C53.8702 15.0004 54.0835 15.0909 54.2434 15.2554L54.7522 15.779C54.9123 15.9432 55.0005 16.1628 55.0005 16.3968C55.0005 16.6308 54.9123 16.8501 54.7522 17.0145L47.0994 24.7452C46.9391 24.9103 46.7248 25.0006 46.497 25C46.2682 25.0006 46.0541 24.9104 45.8936 24.7452L38.2487 17.0145C38.0886 16.8501 38.0005 16.6308 38.0005 16.3967C38.0005 16.1627 38.0886 15.9434 38.2487 15.7789L38.7576 15.2554C39.0888 14.9149 39.628 14.9149 39.9591 15.2554L46.4966 21.8471Z" fill="#8B97AE"/>
</svg>
